<svg width="40" height="38" viewBox="0 0 40 38" fill="none" xmlns="http://www.w3.org/2000/svg">
<rect x="0.5" y="0.5" width="39" height="37" rx="18.5" stroke="black"/>
<path d="M28.4167 16.5477V13.3494C28.4167 12.0907 27.91 11.584 26.6513 11.584H23.4529C22.1942 11.584 21.6875 12.0907 21.6875 13.3494V16.5477C21.6875 17.8065 22.1942 18.3132 23.4529 18.3132H26.6513C27.91 18.3132 28.4167 17.8065 28.4167 16.5477Z" stroke="black" stroke-linecap="round" stroke-linejoin="round"/>
<path d="M19.3127 16.7457V13.1515C19.3127 12.0352 18.806 11.584 17.5472 11.584H14.3489C13.0902 11.584 12.5835 12.0352 12.5835 13.1515V16.7377C12.5835 17.8619 13.0902 18.3052 14.3489 18.3052H17.5472C18.806 18.3132 19.3127 17.8619 19.3127 16.7457Z" stroke="black" stroke-linecap="round" stroke-linejoin="round"/>
<path d="M19.3127 25.6513V22.4529C19.3127 21.1942 18.806 20.6875 17.5472 20.6875H14.3489C13.0902 20.6875 12.5835 21.1942 12.5835 22.4529V25.6513C12.5835 26.91 13.0902 27.4167 14.3489 27.4167H17.5472C18.806 27.4167 19.3127 26.91 19.3127 25.6513Z" stroke="black" stroke-linecap="round" stroke-linejoin="round"/>
<path d="M22.479 23.8535H27.229" stroke="black" stroke-linecap="round"/>
<path d="M24.854 26.2285V21.4785" stroke="black" stroke-linecap="round"/>
</svg>
